<svg width="512" height="955" viewBox="0 0 512 955" fill="none" xmlns="http://www.w3.org/2000/svg">
<g filter="url(#filter0_dd_618_189)">
<mask id="mask0_618_189" style="mask-type:luminance" maskUnits="userSpaceOnUse" x="25" y="10" width="420" height="901">
<path d="M425 10.0002H45C33.9543 10.0002 25 18.9545 25 30.0002V890C25 901.046 33.9543 910 45 910H425C436.046 910 445 901.046 445 890V30.0002C445 18.9545 436.046 10.0002 425 10.0002Z" fill="white"/>
</mask>
<g mask="url(#mask0_618_189)">
<path d="M25 10.0002H445V910H25V10.0002Z" fill="#E0F2FE"/>
<path d="M332.2 649.6C332.2 681.412 306.412 707.2 274.6 707.2C242.788 707.2 217 681.412 217 649.6C217 617.789 242.788 592 274.6 592C306.412 592 332.2 617.789 332.2 649.6Z" fill="white"/>
<path fill-rule="evenodd" clip-rule="evenodd" d="M274.6 703.6C304.423 703.6 328.6 679.424 328.6 649.6C328.6 619.777 304.423 595.6 274.6 595.6C244.777 595.6 220.6 619.777 220.6 649.6C220.6 679.424 244.777 703.6 274.6 703.6ZM274.6 707.2C306.412 707.2 332.2 681.412 332.2 649.6C332.2 617.789 306.412 592 274.6 592C242.788 592 217 617.789 217 649.6C217 681.412 242.788 707.2 274.6 707.2Z" fill="#BAE6FD"/>
<path d="M485.8 649.6C485.8 681.412 460.012 707.2 428.2 707.2C396.388 707.2 370.6 681.412 370.6 649.6C370.6 617.789 396.388 592 428.2 592C460.012 592 485.8 617.789 485.8 649.6Z" fill="#BAE6FD"/>
<path fill-rule="evenodd" clip-rule="evenodd" d="M428.2 703.6C458.023 703.6 482.2 679.424 482.2 649.6C482.2 619.777 458.023 595.6 428.2 595.6C398.377 595.6 374.2 619.777 374.2 649.6C374.2 679.424 398.377 703.6 428.2 703.6ZM428.2 707.2C460.012 707.2 485.8 681.412 485.8 649.6C485.8 617.789 460.012 592 428.2 592C396.388 592 370.6 617.789 370.6 649.6C370.6 681.412 396.388 707.2 428.2 707.2Z" fill="white"/>
<path d="M178.6 649.6C178.6 681.412 152.812 707.2 121 707.2C89.1883 707.2 63.3999 681.412 63.3999 649.6C63.3999 617.789 89.1883 592 121 592C152.812 592 178.6 617.789 178.6 649.6Z" fill="#FBBF24"/>
<path fill-rule="evenodd" clip-rule="evenodd" d="M121 703.6C150.823 703.6 175 679.424 175 649.6C175 619.777 150.823 595.6 121 595.6C91.1765 595.6 66.9999 619.777 66.9999 649.6C66.9999 679.424 91.1765 703.6 121 703.6ZM121 707.2C152.812 707.2 178.6 681.412 178.6 649.6C178.6 617.789 152.812 592 121 592C89.1883 592 63.3999 617.789 63.3999 649.6C63.3999 681.412 89.1883 707.2 121 707.2Z" fill="white"/>
<path d="M63.3999 553.6C63.3999 548.298 67.698 544 72.9999 544H157C162.302 544 166.6 548.298 166.6 553.6C166.6 558.902 162.302 563.2 157 563.2H72.9999C67.698 563.2 63.3999 558.902 63.3999 553.6Z" fill="#BAE6FD"/>
<path d="M185.8 553.6C185.8 548.298 190.098 544 195.4 544H233.8C239.102 544 243.4 548.298 243.4 553.6C243.4 558.902 239.102 563.2 233.8 563.2H195.4C190.098 563.2 185.8 558.902 185.8 553.6Z" fill="#BAE6FD"/>
<path fill-rule="evenodd" clip-rule="evenodd" d="M354.4 355.073C354.47 348.228 359.908 342.4 366.897 342.4C371.186 342.4 374.342 344.524 376.355 346.523C376.916 347.079 377.397 347.635 377.8 348.147C378.203 347.635 378.684 347.079 379.245 346.523C381.258 344.524 384.414 342.4 388.704 342.4C395.692 342.4 401.13 348.228 401.2 355.073C401.333 368.423 390.607 377.658 379.825 384.977C379.228 385.383 378.522 385.6 377.8 385.6C377.078 385.6 376.372 385.383 375.775 384.977C364.992 377.658 354.266 368.423 354.4 355.073ZM379.408 352.21C379.408 352.21 379.409 352.207 379.41 352.205C379.413 352.199 379.42 352.186 379.43 352.167C379.45 352.129 379.484 352.067 379.531 351.985C379.625 351.82 379.773 351.575 379.973 351.276C380.375 350.675 380.979 349.874 381.781 349.077C383.393 347.477 385.69 346 388.704 346C393.586 346 397.549 350.103 397.6 355.109C397.712 366.358 388.678 374.617 377.802 381.999L377.8 382L377.798 381.999C366.921 374.617 357.887 366.359 358 355.11" fill="white"/>
<path d="M63.3999 364C63.3999 358.698 67.698 354.4 72.9999 354.4H137.8C143.102 354.4 147.4 358.698 147.4 364C147.4 369.302 143.102 373.6 137.8 373.6H72.9999C67.698 373.6 63.3999 369.302 63.3999 364Z" fill="#BAE6FD"/>
<path d="M166.6 364C166.6 358.698 170.898 354.4 176.2 354.4H284.2C289.502 354.4 293.8 358.698 293.8 364C293.8 369.302 289.502 373.6 284.2 373.6H176.2C170.898 373.6 166.6 369.302 166.6 364Z" fill="#BAE6FD"/>
<path d="M63.3999 409.6C63.3999 405.624 66.6235 402.4 70.5999 402.4H171.4C175.376 402.4 178.6 405.624 178.6 409.6C178.6 413.577 175.376 416.8 171.4 416.8H70.5999C66.6235 416.8 63.3999 413.577 63.3999 409.6Z" fill="white"/>
<path d="M63.3999 443.2C63.3999 439.224 66.6235 436 70.5999 436H225.4C229.376 436 232.6 439.224 232.6 443.2C232.6 447.177 229.376 450.4 225.4 450.4H70.5999C66.6235 450.4 63.3999 447.177 63.3999 443.2Z" fill="white"/>
<path d="M197.8 409.6C197.8 405.624 201.024 402.4 205 402.4H325C328.976 402.4 332.2 405.624 332.2 409.6C332.2 413.577 328.976 416.8 325 416.8H205C201.024 416.8 197.8 413.577 197.8 409.6Z" fill="white"/>
<path d="M63.3999 85.6003C63.3999 72.3455 74.1451 61.6003 87.3999 61.6003H382.6C395.855 61.6003 406.6 72.3455 406.6 85.6003V272.8C406.6 286.055 395.855 296.8 382.6 296.8H87.3999C74.1451 296.8 63.3999 286.055 63.3999 272.8V85.6003Z" fill="white"/>
<mask id="mask1_618_189" style="mask-type:alpha" maskUnits="userSpaceOnUse" x="63" y="61" width="344" height="236">
<path d="M63.3999 85.6003C63.3999 72.3455 74.1451 61.6003 87.3999 61.6003H382.6C395.855 61.6003 406.6 72.3455 406.6 85.6003V272.8C406.6 286.055 395.855 296.8 382.6 296.8H87.3999C74.1451 296.8 63.3999 286.055 63.3999 272.8V85.6003Z" fill="white"/>
</mask>
<g mask="url(#mask1_618_189)">
<path d="M63.3999 61.6003H274.6L63.3999 263.2V61.6003Z" fill="#BAE6FD"/>
<path d="M461.8 272.8C461.8 313.89 428.49 347.2 387.4 347.2C346.31 347.2 313 313.89 313 272.8C313 231.71 346.31 198.4 387.4 198.4C428.49 198.4 461.8 231.71 461.8 272.8Z" fill="#FBBF24"/>
<path d="M387.4 209.2C387.4 250.953 353.553 284.8 311.8 284.8C270.047 284.8 236.2 250.953 236.2 209.2C236.2 167.448 270.047 133.6 311.8 133.6C353.553 133.6 387.4 167.448 387.4 209.2Z" fill="white"/>
<path fill-rule="evenodd" clip-rule="evenodd" d="M311.8 272.8C346.925 272.8 375.4 244.325 375.4 209.2C375.4 174.075 346.925 145.6 311.8 145.6C276.675 145.6 248.2 174.075 248.2 209.2C248.2 244.325 276.675 272.8 311.8 272.8ZM311.8 284.8C353.553 284.8 387.4 250.953 387.4 209.2C387.4 167.448 353.553 133.6 311.8 133.6C270.047 133.6 236.2 167.448 236.2 209.2C236.2 250.953 270.047 284.8 311.8 284.8Z" fill="#E0F2FE"/>
</g>
<mask id="mask2_618_189" style="mask-type:luminance" maskUnits="userSpaceOnUse" x="25" y="794" width="420" height="116">
<path d="M25 794.8H445V910H25V794.8Z" fill="white"/>
</mask>
<g mask="url(#mask2_618_189)">
<path d="M25 797.8H445V791.8H25V797.8Z" fill="white"/>
</g>
<path fill-rule="evenodd" clip-rule="evenodd" d="M83.2718 829.002C84.124 829.036 84.8353 829.663 84.9755 830.504L90.8628 865.828L95.8693 848.306C96.0861 847.547 96.7719 847.018 97.5609 847.001C98.3499 846.984 99.0581 847.482 99.3076 848.231L102.497 857.8H108.4C109.394 857.8 110.2 858.606 110.2 859.6C110.2 860.594 109.394 861.4 108.4 861.4H101.2C100.425 861.4 99.7374 860.904 99.4924 860.169L97.7323 854.889L92.1307 874.495C91.8995 875.304 91.1385 875.845 90.2982 875.797C89.458 875.75 88.7628 875.126 88.6245 874.296L82.8473 839.633L77.7463 860.037C77.5459 860.838 76.826 861.4 76 861.4H68.8C67.8059 861.4 67 860.594 67 859.6C67 858.606 67.8059 857.8 68.8 857.8H74.5946L81.4537 830.364C81.6606 829.536 82.4197 828.968 83.2718 829.002Z" fill="white"/>
<path fill-rule="evenodd" clip-rule="evenodd" d="M112 857.8C111.006 857.8 110.2 858.606 110.2 859.6C110.2 860.595 111.006 861.4 112 861.4C112.994 861.4 113.8 860.595 113.8 859.6C113.8 858.606 112.994 857.8 112 857.8ZM106.6 859.6C106.6 856.618 109.018 854.2 112 854.2C114.982 854.2 117.4 856.618 117.4 859.6C117.4 862.583 114.982 865 112 865C109.018 865 106.6 862.583 106.6 859.6Z" fill="white"/>
<path fill-rule="evenodd" clip-rule="evenodd" d="M220.254 832.282C223.456 830.142 227.221 829 231.073 829C236.237 829.001 241.19 831.052 244.841 834.704C248.493 838.356 250.545 843.308 250.545 848.473C250.545 852.324 249.403 856.089 247.263 859.291C245.124 862.494 242.083 864.989 238.524 866.463C234.966 867.937 231.051 868.323 227.274 867.571C223.496 866.82 220.027 864.965 217.303 862.242C214.58 859.519 212.726 856.049 211.974 852.272C211.223 848.494 211.608 844.579 213.082 841.021C214.556 837.463 217.052 834.422 220.254 832.282ZM231.072 832.6C227.933 832.6 224.864 833.531 222.254 835.275C219.644 837.019 217.61 839.498 216.408 842.399C215.207 845.299 214.893 848.49 215.505 851.569C216.117 854.648 217.629 857.477 219.849 859.697C222.069 861.916 224.897 863.428 227.976 864.041C231.055 864.653 234.246 864.339 237.147 863.137C240.047 861.936 242.526 859.901 244.27 857.291C246.014 854.681 246.945 851.612 246.945 848.473" fill="white"/>
<path fill-rule="evenodd" clip-rule="evenodd" d="M242.985 860.385C243.688 859.682 244.827 859.682 245.53 860.385L257.873 872.728C258.576 873.43 258.576 874.57 257.873 875.273C257.17 875.976 256.03 875.976 255.327 875.273L242.985 862.931C242.282 862.228 242.282 861.088 242.985 860.385Z" fill="white"/>
<path fill-rule="evenodd" clip-rule="evenodd" d="M356.2 841.6C356.2 840.606 357.006 839.8 358 839.8H397.6C398.594 839.8 399.4 840.606 399.4 841.6C399.4 842.594 398.594 843.4 397.6 843.4H358C357.006 843.4 356.2 842.594 356.2 841.6Z" fill="white"/>
<path fill-rule="evenodd" clip-rule="evenodd" d="M356.2 852.4C356.2 851.406 357.006 850.6 358 850.6H397.6C398.594 850.6 399.4 851.406 399.4 852.4C399.4 853.394 398.594 854.2 397.6 854.2H358C357.006 854.2 356.2 853.394 356.2 852.4Z" fill="white"/>
<path fill-rule="evenodd" clip-rule="evenodd" d="M356.2 863.2C356.2 862.206 357.006 861.4 358 861.4H397.6C398.594 861.4 399.4 862.206 399.4 863.2C399.4 864.195 398.594 865 397.6 865H358C357.006 865 356.2 864.195 356.2 863.2Z" fill="white"/>
</g>
<path d="M425 12.5002H45C35.335 12.5002 27.5 20.3353 27.5 30.0002V890C27.5 899.665 35.335 907.5 45 907.5H425C434.665 907.5 442.5 899.665 442.5 890V30.0002C442.5 20.3353 434.665 12.5002 425 12.5002Z" stroke="white" stroke-width="5"/>
<path d="M486.2 650.6C486.2 682.412 460.412 708.2 428.6 708.2C396.788 708.2 371 682.412 371 650.6C371 618.789 396.788 593 428.6 593C460.412 593 486.2 618.789 486.2 650.6Z" fill="#BAE6FD"/>
<path fill-rule="evenodd" clip-rule="evenodd" d="M428.6 704.6C458.423 704.6 482.6 680.424 482.6 650.6C482.6 620.777 458.423 596.6 428.6 596.6C398.777 596.6 374.6 620.777 374.6 650.6C374.6 680.424 398.777 704.6 428.6 704.6ZM428.6 708.2C460.412 708.2 486.2 682.412 486.2 650.6C486.2 618.789 460.412 593 428.6 593C396.788 593 371 618.789 371 650.6C371 682.412 396.788 708.2 428.6 708.2Z" fill="white"/>
</g>
<defs>
<filter id="filter0_dd_618_189" x="0" y="0.000244141" width="512" height="955" filterUnits="userSpaceOnUse" color-interpolation-filters="sRGB">
<feFlood flood-opacity="0" result="BackgroundImageFix"/>
<feColorMatrix in="SourceAlpha" type="matrix" values="0 0 0 0 0 0 0 0 0 0 0 0 0 0 0 0 0 0 127 0" result="hardAlpha"/>
<feOffset/>
<feGaussianBlur stdDeviation="5"/>
<feColorMatrix type="matrix" values="0 0 0 0 0 0 0 0 0 0 0 0 0 0 0 0 0 0 0.07 0"/>
<feBlend mode="normal" in2="BackgroundImageFix" result="effect1_dropShadow_618_189"/>
<feColorMatrix in="SourceAlpha" type="matrix" values="0 0 0 0 0 0 0 0 0 0 0 0 0 0 0 0 0 0 127 0" result="hardAlpha"/>
<feOffset dy="20"/>
<feGaussianBlur stdDeviation="12.5"/>
<feColorMatrix type="matrix" values="0 0 0 0 0 0 0 0 0 0 0 0 0 0 0 0 0 0 0.1 0"/>
<feBlend mode="normal" in2="effect1_dropShadow_618_189" result="effect2_dropShadow_618_189"/>
<feBlend mode="normal" in="SourceGraphic" in2="effect2_dropShadow_618_189" result="shape"/>
</filter>
</defs>
</svg>
