<svg width="580" height="955" viewBox="0 0 580 955" fill="none" xmlns="http://www.w3.org/2000/svg">
<g filter="url(#filter0_dd_618_234)">
<mask id="mask0_618_234" style="mask-type:luminance" maskUnits="userSpaceOnUse" x="25" y="10" width="420" height="900">
<path d="M425 10H45C33.9543 10 25 18.9543 25 30V890C25 901.046 33.9543 910 45 910H425C436.046 910 445 901.046 445 890V30C445 18.9543 436.046 10 425 10Z" fill="white"/>
</mask>
<g mask="url(#mask0_618_234)">
<path d="M25 10H445V910H25V10Z" fill="#E0F2FE"/>
<path d="M63.3999 635.2C63.3999 621.945 74.1451 611.2 87.3999 611.2H382.6C395.855 611.2 406.6 621.945 406.6 635.2V822.4C406.6 835.655 395.855 846.4 382.6 846.4H87.3999C74.1451 846.4 63.3999 835.655 63.3999 822.4V635.2Z" fill="white"/>
<mask id="mask1_618_234" style="mask-type:alpha" maskUnits="userSpaceOnUse" x="63" y="611" width="344" height="236">
<path d="M63.3999 635.2C63.3999 621.945 74.1451 611.2 87.3999 611.2H382.6C395.855 611.2 406.6 621.945 406.6 635.2V822.4C406.6 835.655 395.855 846.4 382.6 846.4H87.3999C74.1451 846.4 63.3999 835.655 63.3999 822.4V635.2Z" fill="white"/>
</mask>
<g mask="url(#mask1_618_234)">
<path d="M321.4 689.8C321.4 702.724 310.924 713.2 298 713.2C285.077 713.2 274.6 702.724 274.6 689.8C274.6 676.877 285.077 666.4 298 666.4C310.924 666.4 321.4 676.877 321.4 689.8Z" fill="#FBBF24"/>
<path d="M242.2 656.2C242.2 710.213 198.413 754 144.4 754C90.3866 754 46.6001 710.213 46.6001 656.2C46.6001 602.187 90.3866 558.4 144.4 558.4C198.413 558.4 242.2 602.187 242.2 656.2Z" fill="white"/>
<path fill-rule="evenodd" clip-rule="evenodd" d="M144.4 742C191.786 742 230.2 703.586 230.2 656.2C230.2 608.814 191.786 570.4 144.4 570.4C97.0141 570.4 58.6001 608.814 58.6001 656.2C58.6001 703.586 97.0141 742 144.4 742ZM144.4 754C198.413 754 242.2 710.213 242.2 656.2C242.2 602.187 198.413 558.4 144.4 558.4C90.3866 558.4 46.6001 602.187 46.6001 656.2C46.6001 710.213 90.3866 754 144.4 754Z" fill="#E0F2FE"/>
</g>
<path d="M406.6 876.4H195.4L406.6 674.8V876.4Z" fill="#BAE6FD"/>
<path d="M63.3999 565.6C63.3999 561.624 66.6235 558.4 70.5999 558.4H243.4C247.376 558.4 250.6 561.624 250.6 565.6C250.6 569.577 247.376 572.8 243.4 572.8H70.5999C66.6235 572.8 63.3999 569.577 63.3999 565.6Z" fill="white"/>
<path d="M25 794.8H445V910H25V794.8Z" fill="#E0F2FE"/>
<mask id="mask2_618_234" style="mask-type:luminance" maskUnits="userSpaceOnUse" x="25" y="794" width="420" height="116">
<path d="M25 794.8H445V910H25V794.8Z" fill="white"/>
</mask>
<g mask="url(#mask2_618_234)">
<path d="M25 797.8H445V791.8H25V797.8Z" fill="white"/>
</g>
<path fill-rule="evenodd" clip-rule="evenodd" d="M83.2718 829.002C84.124 829.036 84.8353 829.663 84.9755 830.504L90.8628 865.828L95.8693 848.306C96.0861 847.547 96.7719 847.018 97.5609 847.001C98.3499 846.984 99.0581 847.482 99.3076 848.231L102.497 857.8H108.4C109.394 857.8 110.2 858.606 110.2 859.6C110.2 860.594 109.394 861.4 108.4 861.4H101.2C100.425 861.4 99.7374 860.904 99.4924 860.169L97.7323 854.889L92.1307 874.495C91.8995 875.304 91.1385 875.845 90.2982 875.797C89.458 875.75 88.7628 875.126 88.6245 874.296L82.8473 839.633L77.7463 860.037C77.5459 860.838 76.826 861.4 76 861.4H68.8C67.8059 861.4 67 860.594 67 859.6C67 858.606 67.8059 857.8 68.8 857.8H74.5946L81.4537 830.364C81.6606 829.536 82.4197 828.968 83.2718 829.002Z" fill="white"/>
<path fill-rule="evenodd" clip-rule="evenodd" d="M112 857.8C111.006 857.8 110.2 858.606 110.2 859.6C110.2 860.595 111.006 861.4 112 861.4C112.994 861.4 113.8 860.595 113.8 859.6C113.8 858.606 112.994 857.8 112 857.8ZM106.6 859.6C106.6 856.618 109.018 854.2 112 854.2C114.982 854.2 117.4 856.618 117.4 859.6C117.4 862.583 114.982 865 112 865C109.018 865 106.6 862.583 106.6 859.6Z" fill="white"/>
<path fill-rule="evenodd" clip-rule="evenodd" d="M220.254 832.282C223.457 830.142 227.221 829 231.073 829C236.237 829.001 241.19 831.052 244.842 834.704C248.493 838.356 250.545 843.308 250.545 848.473C250.545 852.324 249.403 856.089 247.264 859.291C245.124 862.494 242.083 864.989 238.525 866.463C234.966 867.937 231.051 868.323 227.274 867.571C223.496 866.82 220.027 864.965 217.303 862.242C214.58 859.519 212.726 856.049 211.974 852.272C211.223 848.494 211.608 844.579 213.082 841.021C214.556 837.463 217.052 834.422 220.254 832.282ZM231.073 832.6C227.933 832.6 224.865 833.531 222.254 835.275C219.644 837.019 217.61 839.498 216.408 842.399C215.207 845.299 214.893 848.49 215.505 851.569C216.117 854.648 217.629 857.477 219.849 859.697C222.069 861.916 224.897 863.428 227.976 864.041C231.055 864.653 234.247 864.339 237.147 863.137C240.047 861.936 242.526 859.901 244.27 857.291C246.014 854.681 246.945 851.612 246.945 848.473" fill="white"/>
<path fill-rule="evenodd" clip-rule="evenodd" d="M242.985 860.385C243.688 859.682 244.827 859.682 245.53 860.385L257.873 872.728C258.576 873.43 258.576 874.57 257.873 875.273C257.17 875.976 256.03 875.976 255.327 875.273L242.985 862.931C242.282 862.228 242.282 861.088 242.985 860.385Z" fill="white"/>
<path fill-rule="evenodd" clip-rule="evenodd" d="M356.2 841.6C356.2 840.606 357.006 839.8 358 839.8H397.6C398.594 839.8 399.4 840.606 399.4 841.6C399.4 842.594 398.594 843.4 397.6 843.4H358C357.006 843.4 356.2 842.594 356.2 841.6Z" fill="white"/>
<path fill-rule="evenodd" clip-rule="evenodd" d="M356.2 852.4C356.2 851.406 357.006 850.6 358 850.6H397.6C398.594 850.6 399.4 851.406 399.4 852.4C399.4 853.394 398.594 854.2 397.6 854.2H358C357.006 854.2 356.2 853.394 356.2 852.4Z" fill="white"/>
<path fill-rule="evenodd" clip-rule="evenodd" d="M356.2 863.2C356.2 862.206 357.006 861.4 358 861.4H397.6C398.594 861.4 399.4 862.206 399.4 863.2C399.4 864.195 398.594 865 397.6 865H358C357.006 865 356.2 864.195 356.2 863.2Z" fill="white"/>
<path fill-rule="evenodd" clip-rule="evenodd" d="M92.7594 113.091C93.8138 114.145 93.8138 115.855 92.7594 116.909L78.4686 131.2L92.7594 145.491C93.8138 146.545 93.8138 148.255 92.7594 149.309C91.705 150.363 89.9954 150.363 88.941 149.309L72.741 133.109C71.6866 132.055 71.6866 130.345 72.741 129.291L88.941 113.091C89.9954 112.036 91.705 112.036 92.7594 113.091Z" fill="white"/>
<path fill-rule="evenodd" clip-rule="evenodd" d="M74.2002 131.2C74.2002 129.709 75.409 128.5 76.9002 128.5H109.75C111.241 128.5 112.45 129.709 112.45 131.2C112.45 132.691 111.241 133.9 109.75 133.9H76.9002C75.409 133.9 74.2002 132.691 74.2002 131.2Z" fill="white"/>
<path d="M155.8 131.2C155.8 125.898 160.098 121.6 165.4 121.6H304.6C309.902 121.6 314.2 125.898 314.2 131.2C314.2 136.502 309.902 140.8 304.6 140.8H165.4C160.098 140.8 155.8 136.502 155.8 131.2Z" fill="#BAE6FD"/>
<path d="M63.3999 224.8C63.3999 220.824 66.6235 217.6 70.5999 217.6H171.4C175.376 217.6 178.6 220.824 178.6 224.8C178.6 228.777 175.376 232 171.4 232H70.5999C66.6235 232 63.3999 228.777 63.3999 224.8Z" fill="white"/>
<path d="M63.3999 258.4C63.3999 254.424 66.6235 251.2 70.5999 251.2H225.4C229.376 251.2 232.6 254.424 232.6 258.4C232.6 262.377 229.376 265.6 225.4 265.6H70.5999C66.6235 265.6 63.3999 262.377 63.3999 258.4Z" fill="white"/>
<path d="M197.8 224.8C197.8 220.824 201.024 217.6 205 217.6H325C328.976 217.6 332.2 220.824 332.2 224.8C332.2 228.777 328.976 232 325 232H205C201.024 232 197.8 228.777 197.8 224.8Z" fill="white"/>
<g filter="url(#filter1_di_618_234)">
<mask id="mask3_618_234" style="mask-type:luminance" maskUnits="userSpaceOnUse" x="63" y="304" width="145" height="197">
<path d="M187.4 304H83.3999C72.3542 304 63.3999 312.954 63.3999 324V480.8C63.3999 491.846 72.3542 500.8 83.3999 500.8H187.4C198.446 500.8 207.4 491.846 207.4 480.8V324C207.4 312.954 198.446 304 187.4 304Z" fill="white"/>
</mask>
<g mask="url(#mask3_618_234)">
<path d="M187.4 304H83.3999C72.3542 304 63.3999 312.954 63.3999 324V480.8C63.3999 491.846 72.3542 500.8 83.3999 500.8H187.4C198.446 500.8 207.4 491.846 207.4 480.8V324C207.4 312.954 198.446 304 187.4 304Z" fill="white"/>
<path d="M159.323 500.97C159.323 550.77 119.189 591.14 69.6805 591.14C20.1727 591.14 -19.9614 550.77 -19.9614 500.97C-19.9614 451.171 20.1727 410.8 69.6805 410.8C119.189 410.8 159.323 451.171 159.323 500.97Z" fill="#FBBF24"/>
<path d="M183.303 363.156C183.303 381.236 168.732 395.893 150.758 395.893C132.784 395.893 118.213 381.236 118.213 363.156C118.213 345.076 132.784 330.419 150.758 330.419C168.732 330.419 183.303 345.076 183.303 363.156Z" fill="white"/>
<path fill-rule="evenodd" clip-rule="evenodd" d="M150.758 392.293C166.724 392.293 179.703 379.268 179.703 363.156C179.703 347.044 166.724 334.019 150.758 334.019C134.792 334.019 121.813 347.044 121.813 363.156C121.813 379.268 134.792 392.293 150.758 392.293ZM150.758 395.893C168.732 395.893 183.303 381.236 183.303 363.156C183.303 345.076 168.732 330.419 150.758 330.419C132.784 330.419 118.213 345.076 118.213 363.156C118.213 381.236 132.784 395.893 150.758 395.893Z" fill="#BAE6FD"/>
</g>
<path d="M187.4 305H83.3999C72.9065 305 64.3999 313.507 64.3999 324V480.8C64.3999 491.293 72.9065 499.8 83.3999 499.8H187.4C197.893 499.8 206.4 491.293 206.4 480.8V324C206.4 313.507 197.893 305 187.4 305Z" stroke="#38BDF8" stroke-width="2"/>
</g>
<g filter="url(#filter2_di_618_234)">
<path d="M350.6 304H246.6C235.554 304 226.6 312.954 226.6 324V480.8C226.6 491.846 235.554 500.8 246.6 500.8H350.6C361.646 500.8 370.6 491.846 370.6 480.8V324C370.6 312.954 361.646 304 350.6 304Z" fill="white"/>
<path d="M350.6 305H246.6C236.107 305 227.6 313.507 227.6 324V480.8C227.6 491.293 236.107 499.8 246.6 499.8H350.6C361.094 499.8 369.6 491.293 369.6 480.8V324C369.6 313.507 361.094 305 350.6 305Z" stroke="#38BDF8" stroke-width="2"/>
<path d="M350.858 356.839C350.858 365.72 343.579 372.92 334.6 372.92C325.621 372.92 318.342 365.72 318.342 356.839C318.342 347.957 325.621 340.757 334.6 340.757C343.579 340.757 350.858 347.957 350.858 356.839Z" fill="#FBBF24"/>
<path d="M325.31 444.711C325.31 462.791 310.492 477.448 292.213 477.448C273.934 477.448 259.116 462.791 259.116 444.711C259.116 426.631 273.934 411.974 292.213 411.974C310.492 411.974 325.31 426.631 325.31 444.711Z" fill="#BAE6FD"/>
<path fill-rule="evenodd" clip-rule="evenodd" d="M292.213 473.848C308.541 473.848 321.71 460.766 321.71 444.711C321.71 428.656 308.541 415.574 292.213 415.574C275.885 415.574 262.716 428.656 262.716 444.711C262.716 460.766 275.885 473.848 292.213 473.848ZM292.213 477.448C310.492 477.448 325.31 462.791 325.31 444.711C325.31 426.631 310.492 411.974 292.213 411.974C273.934 411.974 259.116 426.631 259.116 444.711C259.116 462.791 273.934 477.448 292.213 477.448Z" fill="#BAE6FD"/>
</g>
<g filter="url(#filter3_di_618_234)">
<path d="M513.8 304H409.8C398.754 304 389.8 312.954 389.8 324V480.8C389.8 491.846 398.754 500.8 409.8 500.8H513.8C524.846 500.8 533.8 491.846 533.8 480.8V324C533.8 312.954 524.846 304 513.8 304Z" fill="white"/>
<path d="M513.8 305H409.8C399.306 305 390.8 313.507 390.8 324V480.8C390.8 491.293 399.306 499.8 409.8 499.8H513.8C524.293 499.8 532.8 491.293 532.8 480.8V324C532.8 313.507 524.293 305 513.8 305Z" stroke="#38BDF8" stroke-width="2"/>
<path d="M445 354.4L456.285 386.867L490.651 387.567L463.26 408.333L473.214 441.233L445 421.6L416.786 441.233L426.74 408.333L399.349 387.567L433.714 386.867L445 354.4Z" fill="white"/>
<path fill-rule="evenodd" clip-rule="evenodd" d="M456.285 386.867L445 354.4L433.714 386.867L399.349 387.567L426.74 408.333L416.786 441.233L445 421.6L473.214 441.233L463.26 408.333L490.651 387.567L456.285 386.867ZM480.223 390.955L453.708 390.415L445 365.365L436.292 390.415L409.777 390.955L430.911 406.978L423.231 432.362L445 417.214L466.769 432.362L459.089 406.978L480.223 390.955Z" fill="#FBBF24"/>
</g>
</g>
<path d="M425 12.5H45C35.335 12.5 27.5 20.335 27.5 30V890C27.5 899.665 35.335 907.5 45 907.5H425C434.665 907.5 442.5 899.665 442.5 890V30C442.5 20.335 434.665 12.5 425 12.5Z" stroke="white" stroke-width="5"/>
</g>
<g filter="url(#filter4_di_618_234)">
<path d="M510 304H406C394.954 304 386 312.954 386 324V480.8C386 491.846 394.954 500.8 406 500.8H510C521.046 500.8 530 491.846 530 480.8V324C530 312.954 521.046 304 510 304Z" fill="white"/>
<path d="M510 305H406C395.507 305 387 313.507 387 324V480.8C387 491.293 395.507 499.8 406 499.8H510C520.493 499.8 529 491.293 529 480.8V324C529 313.507 520.493 305 510 305Z" stroke="#38BDF8" stroke-width="2"/>
<path d="M521.89 389.576C521.89 407.656 507.319 422.312 489.345 422.312C471.371 422.312 456.8 407.656 456.8 389.576C456.8 371.495 471.371 356.839 489.345 356.839C507.319 356.839 521.89 371.495 521.89 389.576Z" fill="white"/>
<path fill-rule="evenodd" clip-rule="evenodd" d="M489.345 418.712C505.311 418.712 518.29 405.687 518.29 389.576C518.29 373.464 505.311 360.439 489.345 360.439C473.379 360.439 460.4 373.464 460.4 389.576C460.4 405.687 473.379 418.712 489.345 418.712ZM489.345 422.312C507.319 422.312 521.89 407.656 521.89 389.576C521.89 371.495 507.319 356.839 489.345 356.839C471.371 356.839 456.8 371.495 456.8 389.576C456.8 407.656 471.371 422.312 489.345 422.312Z" fill="#BAE6FD"/>
<path d="M441.2 354.4L452.485 386.867L486.851 387.567L459.46 408.333L469.414 441.233L441.2 421.6L412.986 441.233L422.94 408.333L395.549 387.567L429.915 386.867L441.2 354.4Z" fill="white"/>
<path fill-rule="evenodd" clip-rule="evenodd" d="M452.485 386.867L441.2 354.4L429.915 386.867L395.549 387.567L422.94 408.333L412.986 441.233L441.2 421.6L469.414 441.233L459.46 408.333L486.851 387.567L452.485 386.867ZM476.423 390.955L449.908 390.415L441.2 365.365L432.493 390.415L405.977 390.955L427.111 406.978L419.431 432.362L441.2 417.214L462.969 432.362L455.289 406.978L476.423 390.955Z" fill="#FBBF24"/>
</g>
<defs>
<filter id="filter0_dd_618_234" x="0" y="0" width="470" height="955" filterUnits="userSpaceOnUse" color-interpolation-filters="sRGB">
<feFlood flood-opacity="0" result="BackgroundImageFix"/>
<feColorMatrix in="SourceAlpha" type="matrix" values="0 0 0 0 0 0 0 0 0 0 0 0 0 0 0 0 0 0 127 0" result="hardAlpha"/>
<feOffset/>
<feGaussianBlur stdDeviation="5"/>
<feColorMatrix type="matrix" values="0 0 0 0 0 0 0 0 0 0 0 0 0 0 0 0 0 0 0.07 0"/>
<feBlend mode="normal" in2="BackgroundImageFix" result="effect1_dropShadow_618_234"/>
<feColorMatrix in="SourceAlpha" type="matrix" values="0 0 0 0 0 0 0 0 0 0 0 0 0 0 0 0 0 0 127 0" result="hardAlpha"/>
<feOffset dy="20"/>
<feGaussianBlur stdDeviation="12.5"/>
<feColorMatrix type="matrix" values="0 0 0 0 0 0 0 0 0 0 0 0 0 0 0 0 0 0 0.1 0"/>
<feBlend mode="normal" in2="effect1_dropShadow_618_234" result="effect2_dropShadow_618_234"/>
<feBlend mode="normal" in="SourceGraphic" in2="effect2_dropShadow_618_234" result="shape"/>
</filter>
<filter id="filter1_di_618_234" x="13.3999" y="279" width="244" height="296.8" filterUnits="userSpaceOnUse" color-interpolation-filters="sRGB">
<feFlood flood-opacity="0" result="BackgroundImageFix"/>
<feColorMatrix in="SourceAlpha" type="matrix" values="0 0 0 0 0 0 0 0 0 0 0 0 0 0 0 0 0 0 127 0" result="hardAlpha"/>
<feOffset dy="25"/>
<feGaussianBlur stdDeviation="25"/>
<feColorMatrix type="matrix" values="0 0 0 0 0 0 0 0 0 0 0 0 0 0 0 0 0 0 0.25 0"/>
<feBlend mode="normal" in2="BackgroundImageFix" result="effect1_dropShadow_618_234"/>
<feBlend mode="normal" in="SourceGraphic" in2="effect1_dropShadow_618_234" result="shape"/>
<feColorMatrix in="SourceAlpha" type="matrix" values="0 0 0 0 0 0 0 0 0 0 0 0 0 0 0 0 0 0 127 0" result="hardAlpha"/>
<feOffset/>
<feGaussianBlur stdDeviation="7.5"/>
<feComposite in2="hardAlpha" operator="arithmetic" k2="-1" k3="1"/>
<feColorMatrix type="matrix" values="0 0 0 0 0 0 0 0 0 0 0 0 0 0 0 0 0 0 0.07 0"/>
<feBlend mode="normal" in2="shape" result="effect2_innerShadow_618_234"/>
</filter>
<filter id="filter2_di_618_234" x="176.6" y="279" width="244" height="296.8" filterUnits="userSpaceOnUse" color-interpolation-filters="sRGB">
<feFlood flood-opacity="0" result="BackgroundImageFix"/>
<feColorMatrix in="SourceAlpha" type="matrix" values="0 0 0 0 0 0 0 0 0 0 0 0 0 0 0 0 0 0 127 0" result="hardAlpha"/>
<feOffset dy="25"/>
<feGaussianBlur stdDeviation="25"/>
<feColorMatrix type="matrix" values="0 0 0 0 0 0 0 0 0 0 0 0 0 0 0 0 0 0 0.25 0"/>
<feBlend mode="normal" in2="BackgroundImageFix" result="effect1_dropShadow_618_234"/>
<feBlend mode="normal" in="SourceGraphic" in2="effect1_dropShadow_618_234" result="shape"/>
<feColorMatrix in="SourceAlpha" type="matrix" values="0 0 0 0 0 0 0 0 0 0 0 0 0 0 0 0 0 0 127 0" result="hardAlpha"/>
<feOffset/>
<feGaussianBlur stdDeviation="7.5"/>
<feComposite in2="hardAlpha" operator="arithmetic" k2="-1" k3="1"/>
<feColorMatrix type="matrix" values="0 0 0 0 0 0 0 0 0 0 0 0 0 0 0 0 0 0 0.07 0"/>
<feBlend mode="normal" in2="shape" result="effect2_innerShadow_618_234"/>
</filter>
<filter id="filter3_di_618_234" x="339.8" y="279" width="244" height="296.8" filterUnits="userSpaceOnUse" color-interpolation-filters="sRGB">
<feFlood flood-opacity="0" result="BackgroundImageFix"/>
<feColorMatrix in="SourceAlpha" type="matrix" values="0 0 0 0 0 0 0 0 0 0 0 0 0 0 0 0 0 0 127 0" result="hardAlpha"/>
<feOffset dy="25"/>
<feGaussianBlur stdDeviation="25"/>
<feColorMatrix type="matrix" values="0 0 0 0 0 0 0 0 0 0 0 0 0 0 0 0 0 0 0.25 0"/>
<feBlend mode="normal" in2="BackgroundImageFix" result="effect1_dropShadow_618_234"/>
<feBlend mode="normal" in="SourceGraphic" in2="effect1_dropShadow_618_234" result="shape"/>
<feColorMatrix in="SourceAlpha" type="matrix" values="0 0 0 0 0 0 0 0 0 0 0 0 0 0 0 0 0 0 127 0" result="hardAlpha"/>
<feOffset/>
<feGaussianBlur stdDeviation="7.5"/>
<feComposite in2="hardAlpha" operator="arithmetic" k2="-1" k3="1"/>
<feColorMatrix type="matrix" values="0 0 0 0 0 0 0 0 0 0 0 0 0 0 0 0 0 0 0.07 0"/>
<feBlend mode="normal" in2="shape" result="effect2_innerShadow_618_234"/>
</filter>
<filter id="filter4_di_618_234" x="336" y="279" width="244" height="296.8" filterUnits="userSpaceOnUse" color-interpolation-filters="sRGB">
<feFlood flood-opacity="0" result="BackgroundImageFix"/>
<feColorMatrix in="SourceAlpha" type="matrix" values="0 0 0 0 0 0 0 0 0 0 0 0 0 0 0 0 0 0 127 0" result="hardAlpha"/>
<feOffset dy="25"/>
<feGaussianBlur stdDeviation="25"/>
<feColorMatrix type="matrix" values="0 0 0 0 0 0 0 0 0 0 0 0 0 0 0 0 0 0 0.25 0"/>
<feBlend mode="normal" in2="BackgroundImageFix" result="effect1_dropShadow_618_234"/>
<feBlend mode="normal" in="SourceGraphic" in2="effect1_dropShadow_618_234" result="shape"/>
<feColorMatrix in="SourceAlpha" type="matrix" values="0 0 0 0 0 0 0 0 0 0 0 0 0 0 0 0 0 0 127 0" result="hardAlpha"/>
<feOffset/>
<feGaussianBlur stdDeviation="7.5"/>
<feComposite in2="hardAlpha" operator="arithmetic" k2="-1" k3="1"/>
<feColorMatrix type="matrix" values="0 0 0 0 0 0 0 0 0 0 0 0 0 0 0 0 0 0 0.07 0"/>
<feBlend mode="normal" in2="shape" result="effect2_innerShadow_618_234"/>
</filter>
</defs>
</svg>
